<?xml version="1.0" encoding="utf-8"?>
<!-- Generator: Adobe Illustrator 25.0.1, SVG Export Plug-In . SVG Version: 6.00 Build 0)  -->
<svg version="1.0"
	 id="Layer_1" xmlns:cc="http://creativecommons.org/ns#" xmlns:dc="http://purl.org/dc/elements/1.1/" xmlns:inkscape="http://www.inkscape.org/namespaces/inkscape" xmlns:rdf="http://www.w3.org/1999/02/22-rdf-syntax-ns#" xmlns:sodipodi="http://sodipodi.sourceforge.net/DTD/sodipodi-0.dtd"
	 xmlns="http://www.w3.org/2000/svg" xmlns:xlink="http://www.w3.org/1999/xlink" x="0px" y="0px" width="260px" height="260px"
	 viewBox="0 0 260 260" enable-background="new 0 0 260 260" xml:space="preserve">
<g transform="translate(-8.71 -8.72)">
	<g id="cvfa">
		<path fill="#D1A41A" d="M53.7,168c3,3.6,6.2,7.4,9.9,11.1c-10.5,3.2-17.5,9.1-21.8,14.3c-6.8,8.2-10.4,19.1-9.6,28.4H14
			c3.6-7.9,18.2-30.7,39.6-53.8H53.7z"/>
		<path fill="#D1A41A" d="M264,227h-22.1c-50.6-26.4-95.1-45-142-49.1c0.1-6.6,1.3-14,3.5-22.3l-4.3-1.2c-2.3,8.5-3.5,16.2-3.7,23.1
			c-4.9-0.3-9.9-0.5-14.9-0.5c-4.2,0-8.1,0.4-11.6,1.1c-4.6-4.6-8.5-9-11.8-13.1c21.8-22.7,57.6-43.2,88.9-50.9
			c8.8,29.2,27.7,49.2,50.6,62.7c1.7-1,3.3-2,4.9-3l40,43l1.8-0.1c10.9-0.9,17.1,5,18.8,6.8c1.2,1.3,1.9,2.6,2.3,3.5H264z"/>
		<path fill="#FFDC76" d="M244,82.8c0.8,39.7-19.4,71.3-47.8,87.5c-48.1-24-57.2-84.7-49-117c2.3,12.5,6.4,20.3,15.4,24.1
			c19.5-5.6,46.4-6,66.2-0.6c8.2-6,11.5-15.2,13.2-23.2c2.2,9.3,1.9,29.5,1.9,29.5L244,82.8z"/>
	</g>
	<polygon points="109,127.2 123,120.4 131,142 	"/>
	<polygon points="93.3,135.1 102,129.9 110,144 	"/>
	<polygon points="76.4,146 84,141 87.8,154 	"/>
	<polygon points="211,182 206,177 199,188 	"/>
	<polygon points="221,194 217,190 205,198 	"/>
	<polygon points="203,71.2 189,71.5 197,90 	"/>
	<polygon points="148,106.3 146,98.4 160,105.5 	"/>
	<polygon points="151,118 150,112.8 158,116.1 	"/>
	<polygon points="243,109.6 245,103.6 234,108.2 	"/>
	<polygon points="239,121.8 240,116.9 232,119.3 	"/>
	<rect x="142" y="137.3" width="26.2" height="3.2"/>
	<rect x="142" y="129.5" width="26.2" height="3.2"/>
	<rect x="222" y="137.3" width="26.2" height="3.2"/>
	<rect x="222" y="129.5" width="26.2" height="3.2"/>
	<path d="M213,110.3h-42.8v-2.9h13.3c1.6-7,2-13.7,0-17.1c-0.8-1.5-2-2.1-3.7-2.1c-7.6,0-10.8,8.1-10.9,8.4l0,0l-2.7-1
		c0.2-0.4,4-10.3,13.6-10.3c2.7,0,4.8,1.2,6.2,3.6c2.4,4.1,2.1,11.3,0.5,18.6h23.4c3.1-9.1,9.6-13.4,20.4-13.4v2.9
		c-11.7,0-15,5-17.4,10.5h12.7l0,2.9L213,110.3z"/>
	<path d="M215,124.7L215,124.7c-3.4-5.1-4.5-9.5-3.1-14.4l-3,0c-1,3.3-0.6,8.3,1.9,12.5h-29.7c1.8-3.6,3.5-8,4.7-12.5h-3
		c-1.4,4.8-3.2,9.5-5.4,13.3l-0.7,1.2l16.7,10.5l-9.4,6.2l1.6,2.4l10.5-6.9l11.3,7.4l1.6-2.5l-10.5-6.5
		C198.6,135.5,214.3,125.3,215,124.7C215.1,124.7,215.1,124.7,215,124.7L215,124.7z M196.1,133.5l-12.3-7.8l24.1,0L196.1,133.5z"/>
</g>
<g transform="matrix(.99 0 0 .996 -7.52 -8)">
	<path d="M249,79.5c0-5.1-1.6-26.5-4.5-32.4c-7.9,3-22.2,12.7-25.4,22.6c-15.5-2.3-33-2-48.4,0.6c-2.6-10.7-15.4-18.8-25.1-23.4
		c-4.1,6.9-5.9,22.9-5.4,34.3c0,0,0,0-0.1,0c1.8,47.7,25.2,77.4,55.8,95.4C227.4,158.6,249.9,123.5,249,79.5
		C249,79.5,249,79.5,249,79.5L249,79.5z M222.8,70.3c0.1,0,0.2,0,0.3,0.1C223,70.3,222.9,70.3,222.8,70.3z M220.8,69.9
		c0.3,0,0.6,0.1,0.8,0.1C221.4,70,221.1,70,220.8,69.9z M244.1,82.9c0.8,39.7-19.4,71.3-47.8,87.5c-48.1-24-57.2-84.7-49-117
		c2.3,12.5,6.4,20.3,15.4,24.1c19.5-5.6,46.4-6,66.2-0.6c8.2-6,11.5-15.2,13.2-23.2c2.2,9.3,1.9,29.5,1.9,29.5L244.1,82.9z"/>
	<path d="M265,220.2c-4.9-5.5-14.6-8.1-22.7-7.9c-5.7-6.8-39-41.9-39-41.9l-2.3,2.9l40.2,43.2l1.7-0.1c10.9-0.9,17.1,5,18.8,6.8
		c1.2,1.4,1.9,2.6,2.3,3.5H242c-50.6-26.4-95.1-45-142-49.1c0.1-6.6,1.3-14,3.5-22.3l-4.3-1.2c-2.3,8.5-3.5,16.2-3.7,23.1
		c-4.9-0.3-9.9-0.5-14.9-0.5c-4.2,0-8.1,0.4-11.6,1.1c-4.6-4.6-8.5-9-11.8-13.1c21.9-22.8,58.1-43.5,89.5-51.1l-1-4.4
		c-33.8,8.2-70.8,30.3-91.4,51.8c-9.6-12.9-13.4-23.5-14.5-31.5c-1.4-10.1,1-19.4,7-26.9C56.2,90.8,69.5,90,83.3,92.3
		c-0.3,2.2,0,4.2,0.9,5.5c3.6,5.4,23.1,7.2,34.8,2c-8.6-12-26-17.9-30.8-15.6c-1.6,0.8-2.8,2.2-3.6,3.9c-4.8-0.8-9.5-1.5-12.9-1.5
		C59.5,86.8,50.2,91,43.3,99.6c-6.8,8.4-9.5,18.9-8,30.3c1.5,10.8,6.9,22.3,15.8,34.2c-1.5,1.6-2.9,3.2-4.3,4.7
		c-21.8,24.4-37.8,50.7-37.8,55v2.2h28.8l-0.5-2.7c-1.6-8.6,1.6-19.4,8.3-27.4c4.2-5,11.1-10.8,22-13.5c9.7,9.4,22,19.4,35.7,29.1
		h21.4v-2.2c0-2.5-1.3-4.8-3.5-6.3c-3.4-2.2-8.6-2.5-13.4-0.9c-4.6-5.1-7.1-11.9-7.7-20.3c46.5,4.1,90.9,22.9,141,49.1h27.6l0.4-1.8
		c0.5-2.6-0.9-6-3.8-9.2L265,220.2z M42,193.4c-6.8,8.2-10.4,19.1-9.6,28.4H14.2c3.6-7.9,18.2-30.7,39.6-53.8
		c3,3.7,6.2,7.4,9.9,11.1c-10.5,3.2-17.5,9.1-21.8,14.3H42z"/>
</g>
</svg>
